<svg width="124" height="40" viewBox="0 0 124 40" fill="none" xmlns="http://www.w3.org/2000/svg">
<g clip-path="url(#clip0_24_339)">
<path d="M0.0488281 33.0732C0.461357 32.9938 0.880804 32.9557 1.30089 32.9594C1.82414 32.9175 2.346 33.0552 2.78052 33.3497C2.92338 33.4607 3.03773 33.6041 3.11408 33.7681C3.19043 33.9321 3.22662 34.112 3.21958 34.2927C3.21234 34.5594 3.12008 34.8168 2.95628 35.0274C2.79249 35.238 2.56572 35.3908 2.30901 35.4635C2.62038 35.527 2.90033 35.696 3.10173 35.9418C3.30312 36.1876 3.41364 36.4953 3.41469 36.8131C3.41638 37.0136 3.37685 37.2123 3.29853 37.3969C3.22021 37.5816 3.10478 37.7481 2.95941 37.8862C2.42701 38.2676 1.77348 38.4412 1.122 38.3741C0.764712 38.3989 0.406121 38.3989 0.0488281 38.3741V33.0732ZM0.731777 35.2684H1.38217C2.09762 35.2684 2.53663 34.8781 2.53663 34.3741C2.53663 33.87 2.06508 33.496 1.3659 33.496C1.1603 33.4786 0.953597 33.4786 0.748003 33.496L0.731777 35.2684ZM0.731777 37.8212C0.926397 37.841 1.1225 37.841 1.31712 37.8212C2.03257 37.8212 2.68297 37.561 2.68297 36.7805C2.68297 36.0001 2.06512 35.7561 1.30089 35.7561H0.731777V37.8212Z" fill="white"/>
<path d="M7.54448 37.301C7.52662 37.6476 7.52662 37.995 7.54448 38.3416H6.92659V37.7238C6.79857 37.9456 6.61336 38.129 6.39027 38.2549C6.16718 38.3807 5.91438 38.4444 5.6583 38.4392C5.05667 38.4392 4.32495 38.0977 4.32495 36.8132V34.4554H5.02413V36.5855C5.02413 37.3172 5.25177 37.805 5.88591 37.805C6.08537 37.8011 6.27932 37.7389 6.44396 37.6263C6.60861 37.5136 6.7368 37.3554 6.81275 37.1709C6.83108 37.0524 6.83108 36.9317 6.81275 36.8132V34.4554H7.51193L7.54448 37.301Z" fill="white"/>
<path d="M9.5121 33.4308C9.51703 33.4897 9.50904 33.549 9.48872 33.6045C9.46841 33.66 9.43624 33.7104 9.39444 33.7522C9.35265 33.794 9.30227 33.8262 9.24677 33.8465C9.19126 33.8668 9.13199 33.8748 9.07309 33.8699C8.95665 33.8699 8.84499 33.8236 8.76265 33.7413C8.68032 33.6589 8.63403 33.5473 8.63403 33.4308C8.63403 33.3144 8.68032 33.2027 8.76265 33.1204C8.84499 33.0381 8.95665 32.9918 9.07309 32.9918C9.13067 32.9893 9.18809 32.9991 9.24161 33.0205C9.29512 33.0419 9.34349 33.0745 9.38348 33.116C9.42346 33.1575 9.45417 33.207 9.47354 33.2613C9.49291 33.3156 9.50048 33.3734 9.49582 33.4308M8.71536 34.504H9.41454V38.3414H8.71536V34.504Z" fill="white"/>
<path d="M11.2685 32.7155H10.5693V38.3415H11.2685V32.7155Z" fill="white"/>
<path d="M15.7563 32.7155V37.3496C15.7563 37.6911 15.7563 38.0813 15.7563 38.3415H15.1384V37.6748C15.0116 37.912 14.8212 38.1092 14.5886 38.2441C14.3559 38.3791 14.0902 38.4467 13.8214 38.4391C13.5845 38.423 13.3534 38.3591 13.1419 38.2511C12.9304 38.1432 12.743 37.9936 12.591 37.8112C12.4391 37.6288 12.3256 37.4175 12.2576 37.19C12.1896 36.9626 12.1684 36.7237 12.1954 36.4878C12.1612 36.237 12.1797 35.9819 12.2497 35.7387C12.3197 35.4955 12.4395 35.2695 12.6017 35.0752C12.7639 34.8809 12.9648 34.7225 13.1916 34.6102C13.4184 34.4978 13.6661 34.434 13.9189 34.4228C14.146 34.4094 14.3724 34.4566 14.5753 34.5594C14.7781 34.6623 14.95 34.8171 15.0734 35.0081V32.7155H15.7563ZM15.0572 36.065C15.0724 35.9681 15.0724 35.8693 15.0572 35.7724C15.0052 35.5445 14.8769 35.3412 14.6935 35.1963C14.5102 35.0513 14.2828 34.9735 14.049 34.9756C13.3336 34.9756 12.8945 35.6098 12.8945 36.4553C12.8945 37.3008 13.2848 37.8699 14.0328 37.8699C14.2722 37.8682 14.504 37.7852 14.6901 37.6345C14.8762 37.4839 15.0056 37.2745 15.0572 37.0407C15.0741 36.9384 15.0741 36.834 15.0572 36.7317V36.065Z" fill="white"/>
<path d="M17.6422 33.4308C17.6472 33.4897 17.6392 33.549 17.6189 33.6045C17.5985 33.66 17.5664 33.7104 17.5246 33.7522C17.4828 33.794 17.4324 33.8262 17.3769 33.8465C17.3214 33.8668 17.2621 33.8748 17.2032 33.8699C17.0868 33.8699 16.9751 33.8236 16.8928 33.7413C16.8104 33.6589 16.7642 33.5473 16.7642 33.4308C16.7642 33.3144 16.8104 33.2027 16.8928 33.1204C16.9751 33.0381 17.0868 32.9918 17.2032 32.9918C17.2608 32.9893 17.3182 32.9991 17.3717 33.0205C17.4252 33.0419 17.4736 33.0745 17.5136 33.116C17.5536 33.1575 17.5843 33.207 17.6037 33.2613C17.623 33.3156 17.6306 33.3734 17.6259 33.4308M16.8617 34.504H17.6422V38.3414H16.9593L16.8617 34.504Z" fill="white"/>
<path d="M18.7805 35.5448C18.7805 35.1545 18.7805 34.8293 18.7805 34.5041H19.3984V35.1383C19.5237 34.914 19.7083 34.7286 19.932 34.6024C20.1558 34.4762 20.4099 34.4141 20.6667 34.4228C21.187 34.4228 22.0163 34.748 22.0163 36.0488V38.3252H21.3171V36.0813C21.3171 35.4634 21.0894 34.9594 20.439 34.9594C20.2258 34.9614 20.019 35.0321 19.8491 35.161C19.6792 35.2899 19.5554 35.47 19.496 35.6748C19.4765 35.7823 19.4765 35.8925 19.496 36V38.2927H18.7967L18.7805 35.5448Z" fill="white"/>
<path d="M26.5042 34.4552C26.5042 34.7316 26.5042 35.0405 26.5042 35.5121V37.7397C26.5425 38.0549 26.513 38.3747 26.4176 38.6776C26.3223 38.9805 26.1633 39.2594 25.9513 39.4959C25.5568 39.8141 25.0591 39.9761 24.5529 39.9511C24.1106 39.9591 23.6738 39.8526 23.2846 39.6422L23.4473 39.1056C23.7924 39.3063 24.1863 39.4077 24.5854 39.3983C25.3009 39.3983 25.8212 39.0406 25.8212 38.0649V37.7072C25.6922 37.9113 25.5113 38.0775 25.2971 38.1889C25.0828 38.3003 24.8429 38.3529 24.6017 38.3414C24.3701 38.3314 24.1429 38.2744 23.934 38.1737C23.7251 38.0731 23.5389 37.9309 23.3868 37.756C23.2346 37.581 23.1197 37.3769 23.049 37.156C22.9784 36.9352 22.9534 36.7022 22.9757 36.4714C22.9488 36.2223 22.9731 35.9703 23.0473 35.7309C23.1214 35.4915 23.2437 35.2698 23.4067 35.0794C23.5696 34.8891 23.7698 34.734 23.9949 34.6239C24.22 34.5137 24.4652 34.4508 24.7156 34.4389C24.9563 34.4257 25.1959 34.4814 25.4061 34.5995C25.6163 34.7176 25.7885 34.8931 25.9025 35.1056V34.5202L26.5042 34.4552ZM25.7725 36.0812C25.7906 35.9736 25.7906 35.8636 25.7725 35.756C25.7121 35.5442 25.584 35.3581 25.4078 35.2259C25.2317 35.0938 25.017 35.023 24.7968 35.0243C24.1302 35.0243 23.6587 35.5771 23.6587 36.4714C23.6587 37.3657 24.0326 37.8536 24.7806 37.8536C24.9981 37.8533 25.2099 37.7839 25.3853 37.6553C25.5607 37.5266 25.6906 37.3455 25.7562 37.1381C25.7717 37.0139 25.7717 36.8883 25.7562 36.7642L25.7725 36.0812Z" fill="white"/>
<path d="M31.4468 38.3414V37.8699C31.3088 38.0486 31.1313 38.193 30.9282 38.2918C30.7251 38.3905 30.5019 38.4409 30.2761 38.439C30.1242 38.4502 29.9716 38.4299 29.8279 38.3793C29.6843 38.3288 29.5526 38.2491 29.4411 38.1453C29.3297 38.0415 29.2409 37.9158 29.1803 37.7761C29.1197 37.6363 29.0887 37.4856 29.0891 37.3333C29.0891 36.4064 29.9184 35.9024 31.4143 35.9024V35.8211C31.4272 35.7026 31.4133 35.5828 31.3737 35.4704C31.3341 35.3581 31.2698 35.256 31.1856 35.1717C31.1014 35.0875 30.9993 35.0232 30.8869 34.9836C30.7745 34.9441 30.6547 34.9302 30.5362 34.943C30.1822 34.9479 29.8352 35.043 29.5281 35.2195L29.3655 34.7642C29.7477 34.5333 30.1873 34.415 30.6338 34.4227C31.8208 34.4227 32.0973 35.2195 32.0973 36.0487V37.4796C32.0706 37.7825 32.0706 38.0873 32.0973 38.3902L31.4468 38.3414ZM31.3493 36.3902C30.585 36.3902 29.7232 36.504 29.7232 37.252C29.7158 37.3414 29.728 37.4313 29.7589 37.5156C29.7898 37.5998 29.8387 37.6763 29.9021 37.7398C29.9656 37.8032 30.0421 37.8521 30.1263 37.883C30.2106 37.9139 30.3005 37.926 30.3899 37.9186C30.594 37.9252 30.7947 37.8653 30.9618 37.748C31.1289 37.6307 31.2535 37.4624 31.3167 37.2682C31.3317 37.1986 31.3317 37.1265 31.3167 37.0569L31.3493 36.3902Z" fill="white"/>
<path d="M34.7638 37.5121C35.1402 37.7286 35.5654 37.846 35.9996 37.8536C36.6988 37.8536 37.1215 37.4796 37.1215 36.943C37.1215 36.4064 36.8288 36.1626 36.1134 35.8861C35.3979 35.6097 34.6987 35.1219 34.6987 34.3739C34.7082 34.1626 34.7615 33.9555 34.8552 33.7658C34.9488 33.5761 35.0808 33.408 35.2429 33.2719C35.4049 33.1359 35.5934 33.035 35.7964 32.9756C35.9994 32.9162 36.2125 32.8995 36.4223 32.9268C36.834 32.9067 37.2437 32.9965 37.6093 33.1869L37.4142 33.7398C37.1049 33.5727 36.7576 33.4886 36.4061 33.4959C35.6744 33.4959 35.398 33.9186 35.398 34.2926C35.398 34.6666 35.7232 35.0406 36.4549 35.317C37.1866 35.5934 37.8207 36.0975 37.8207 36.943C37.8207 37.7886 37.2191 38.4715 35.9508 38.4715C35.4735 38.479 35.0026 38.3612 34.585 38.13L34.7638 37.5121Z" fill="white"/>
<path d="M43.2841 36.0812C43.2841 35.3333 43.2841 34.4552 43.2841 33.7723C43.1052 34.4064 42.8776 35.0731 42.6012 35.8048L41.6581 38.3902H41.1378L40.276 35.8536C40.0159 35.1056 39.8044 34.4064 39.6418 33.7723C39.6418 34.4389 39.6419 35.3983 39.5443 36.13L39.398 38.4227H38.7476L39.1215 33.0894H39.9996L40.9101 35.6747C41.1203 36.2611 41.2994 36.8581 41.4468 37.4633C41.6033 36.8571 41.7932 36.26 42.0158 35.6747L42.9589 33.0894H43.8369L44.1784 38.4227H43.4955L43.2841 36.0812Z" fill="white"/>
<path d="M45.9516 36.6668L45.3988 38.2928H44.6833L46.5045 32.9595H47.3338L49.1549 38.2928H48.4232L47.8541 36.6668H45.9516ZM47.7077 36.1302L47.1874 34.5855C47.072 34.2659 46.9743 33.9402 46.8947 33.6099C46.8947 33.9351 46.7321 34.2603 46.6345 34.5855L46.1143 36.1302H47.7077Z" fill="white"/>
<path d="M49.9514 33.0733C50.3863 32.9974 50.827 32.9593 51.2685 32.9595C51.8468 32.8909 52.4293 33.0482 52.8945 33.3985C53.0675 33.5738 53.1924 33.7908 53.2569 34.0284C53.3215 34.2661 53.3236 34.5164 53.2631 34.7551C53.2026 34.9939 53.0815 35.213 52.9116 35.3912C52.7416 35.5694 52.5285 35.7008 52.2929 35.7725C52.5084 35.8654 52.6956 36.0136 52.8355 36.202C52.9753 36.3905 53.063 36.6125 53.0896 36.8457C53.1723 37.3466 53.3086 37.8372 53.4961 38.3091H52.7807C52.6284 37.8963 52.5088 37.4723 52.423 37.0408C52.2604 36.3091 51.984 36.0164 51.3498 36.0002H50.6994V38.3091H50.0165L49.9514 33.0733ZM50.6344 35.5123H51.3498C52.0815 35.5123 52.5531 35.1058 52.5531 34.4879C52.5531 33.87 52.049 33.5123 51.3173 33.4961C51.0904 33.4687 50.8612 33.4687 50.6344 33.4961V35.5123Z" fill="white"/>
<path d="M55.3167 33.5937H53.6907V33.0083H57.6419V33.5937H56.0159V38.3416H55.3167V33.5937Z" fill="white"/>
<path d="M60.6177 33.5937H58.9917V33.0083H62.9592V33.5937H61.3169V38.3416H60.6177V33.5937Z" fill="white"/>
<path d="M66.4221 36.3902C66.4476 36.6546 66.4165 36.9213 66.3309 37.1727C66.2453 37.4241 66.1072 37.6544 65.9257 37.8482C65.7441 38.042 65.5234 38.195 65.2782 38.2968C65.0329 38.3987 64.7688 38.4472 64.5034 38.439C64.2485 38.4423 63.9958 38.3921 63.7616 38.2916C63.5274 38.1911 63.3169 38.0425 63.1437 37.8555C62.9706 37.6686 62.8385 37.4473 62.7562 37.2061C62.6739 36.9649 62.6432 36.7091 62.666 36.4553C62.6431 36.1937 62.6756 35.9301 62.7613 35.6818C62.847 35.4336 62.9841 35.2062 63.1636 35.0144C63.3431 34.8227 63.5609 34.6709 63.803 34.569C64.045 34.467 64.3058 34.4172 64.5684 34.4228C64.8231 34.4174 65.0761 34.4655 65.3111 34.564C65.546 34.6625 65.7577 34.8093 65.9324 34.9947C66.1071 35.1801 66.2409 35.4001 66.3253 35.6405C66.4096 35.8809 66.4426 36.1363 66.4221 36.3902ZM63.3814 36.3902C63.3814 37.2358 63.853 37.8537 64.5359 37.8537C65.2188 37.8537 65.7066 37.2358 65.7066 36.374C65.7066 35.5122 65.3814 34.8943 64.5522 34.8943C63.7229 34.8943 63.3814 35.6585 63.3814 36.3902Z" fill="white"/>
<path d="M67.3171 35.5449C67.3171 35.1546 67.3171 34.8294 67.3171 34.5042H67.935V35.1221C68.0558 34.9059 68.2331 34.7267 68.4479 34.6035C68.6627 34.4804 68.907 34.418 69.1545 34.4229C69.3922 34.4246 69.6238 34.4986 69.8184 34.6351C70.013 34.7717 70.1615 34.9642 70.244 35.1871C70.3449 34.9938 70.4897 34.8267 70.6667 34.6993C70.9067 34.5094 71.2065 34.4114 71.5123 34.4229C72.0326 34.4229 72.7806 34.7644 72.7806 36.0489V38.3091H72.0976V36.1465C72.0976 35.3985 71.8375 34.9595 71.2684 34.9595C71.0812 34.965 70.9004 35.0292 70.7516 35.143C70.6028 35.2568 70.4935 35.4144 70.4391 35.5936C70.421 35.7122 70.421 35.8328 70.4391 35.9514V38.3091H69.6749V36.0814C69.6749 35.4635 69.3985 35.0245 68.8619 35.0245C68.6635 35.0374 68.474 35.1116 68.3196 35.2369C68.1652 35.3621 68.0536 35.5322 68.0001 35.7237C67.9754 35.8362 67.9754 35.9527 68.0001 36.0651V38.3741H67.3171V35.5449Z" fill="white"/>
<path d="M77.4309 36.3902C77.4564 36.6546 77.4253 36.9213 77.3398 37.1727C77.2542 37.4241 77.116 37.6544 76.9345 37.8482C76.753 38.042 76.5322 38.195 76.287 38.2968C76.0417 38.3987 75.7776 38.4472 75.5122 38.439C75.2573 38.4423 75.0046 38.3921 74.7704 38.2916C74.5362 38.1911 74.3258 38.0425 74.1526 37.8555C73.9794 37.6686 73.8474 37.4473 73.7651 37.2061C73.6828 36.9649 73.652 36.7091 73.6748 36.4553C73.6519 36.1937 73.6844 35.9301 73.7701 35.6818C73.8558 35.4336 73.9929 35.2062 74.1724 35.0144C74.3519 34.8227 74.5697 34.6709 74.8118 34.569C75.0538 34.467 75.3146 34.4172 75.5772 34.4228C75.8319 34.4174 76.0849 34.4655 76.3199 34.564C76.5548 34.6625 76.7665 34.8093 76.9412 34.9947C77.1159 35.1801 77.2497 35.4001 77.3341 35.6405C77.4184 35.8809 77.4514 36.1363 77.4309 36.3902ZM74.374 36.3902C74.374 37.2358 74.8617 37.8537 75.5447 37.8537C76.2276 37.8537 76.7154 37.2358 76.7154 36.374C76.7154 35.5122 76.3902 34.8943 75.5609 34.8943C74.7317 34.8943 74.374 35.6585 74.374 36.3902Z" fill="white"/>
<path d="M78.3093 35.7077C78.3093 35.2525 78.3093 34.8622 78.3093 34.5045H78.9272V35.2687C78.9951 35.0332 79.1351 34.8249 79.3277 34.6732C79.5202 34.5215 79.7555 34.4341 80.0004 34.4232H80.1955V35.0736H79.9516C79.7137 35.0811 79.4871 35.1768 79.3158 35.3421C79.1445 35.5074 79.0408 35.7304 79.0248 35.9679C79.0139 36.076 79.0139 36.185 79.0248 36.2931V38.3256H78.3256L78.3093 35.7077Z" fill="white"/>
<path d="M80.9429 35.7075C80.9429 35.2522 80.9429 34.862 80.9429 34.5042H81.5608V35.2685C81.6369 35.0312 81.7868 34.8244 81.9886 34.6782C82.1903 34.5319 82.4335 34.4539 82.6827 34.4555H82.8778V35.1059H82.6827C82.4448 35.1134 82.2182 35.2091 82.0469 35.3744C81.8756 35.5396 81.7719 35.7627 81.7559 36.0002C81.745 36.1083 81.745 36.2172 81.7559 36.3254V38.3579H81.0567L80.9429 35.7075Z" fill="white"/>
<path d="M86.9436 36.3902C86.9664 36.654 86.9336 36.9197 86.847 37.1699C86.7604 37.4201 86.6222 37.6493 86.4412 37.8426C86.2602 38.0358 86.0405 38.1888 85.7965 38.2916C85.5525 38.3943 85.2896 38.4446 85.0249 38.439C84.77 38.4423 84.5173 38.3921 84.2831 38.2916C84.0489 38.1911 83.8384 38.0425 83.6652 37.8555C83.492 37.6686 83.36 37.4473 83.2777 37.2061C83.1954 36.9649 83.1647 36.7091 83.1875 36.4553C83.1646 36.1937 83.1971 35.9301 83.2828 35.6818C83.3685 35.4336 83.5056 35.2062 83.6851 35.0144C83.8646 34.8227 84.0824 34.6709 84.3245 34.569C84.5665 34.467 84.8273 34.4172 85.0899 34.4228C85.3446 34.4174 85.5976 34.4655 85.8326 34.564C86.0675 34.6625 86.2791 34.8093 86.4538 34.9947C86.6285 35.1801 86.7624 35.4001 86.8467 35.6405C86.9311 35.8809 86.9641 36.1363 86.9436 36.3902ZM83.8866 36.3902C83.8866 37.2358 84.3744 37.8537 85.0574 37.8537C85.7403 37.8537 86.2281 37.2358 86.2281 36.374C86.2281 35.5122 85.9029 34.8943 85.0736 34.8943C84.2444 34.8943 83.8866 35.6585 83.8866 36.3902Z" fill="white"/>
<path d="M88.0491 34.4554L88.5531 36.4067C88.6669 36.8457 88.7645 37.236 88.8458 37.6262C88.9434 37.2522 89.0735 36.8294 89.1873 36.4229L89.8215 34.4554H90.4068L91.0084 36.3741C91.1548 36.8457 91.2523 37.2522 91.3499 37.6262C91.3499 37.2522 91.5288 36.8457 91.6426 36.3904L92.1954 34.4554H92.8946L91.6426 38.2928H91.0084L90.4231 36.4717C90.293 36.0327 90.1791 35.6587 90.0816 35.2034C89.9912 35.6321 89.8772 36.0555 89.7401 36.4717L89.106 38.2928H88.4718L87.3174 34.4554H88.0491Z" fill="white"/>
<path d="M46.228 4.79663H0.585693V29.4633H46.228V4.79663Z" fill="#3F3D92"/>
<path d="M91.7889 4.79663H46.1304V29.4633H91.7889V4.79663Z" fill="white"/>
<path d="M92.4388 30.0002H0.0810547V4.26038H92.4388V30.0002ZM1.15418 28.9271H91.3656V5.33355H1.0729L1.15418 28.9271Z" fill="#E83231"/>
<path d="M15.0893 17.3823C15.1171 18.6337 14.8555 19.8747 14.325 21.0084C13.8997 21.9692 13.24 22.8078 12.4064 23.4474C11.8219 23.8621 11.1659 24.1652 10.4714 24.3417C9.65932 24.5156 8.83026 24.5974 7.99987 24.5856H3.77222V10.0653H8.1137C8.9684 10.0513 9.82123 10.1497 10.6503 10.3579C11.2925 10.5299 11.8983 10.8164 12.4389 11.2035C13.2872 11.8497 13.9584 12.6999 14.3901 13.675C14.8833 14.8244 15.1218 16.067 15.0893 17.3173M11.8372 17.3173C11.8538 16.4847 11.7103 15.6567 11.4145 14.8783C11.154 14.1987 10.673 13.6261 10.0486 13.2522C9.74823 13.0671 9.41824 12.9351 9.07304 12.862C8.58382 12.7845 8.08853 12.7518 7.59336 12.7645H6.79658V21.7888H7.59336C8.13848 21.8046 8.6837 21.761 9.21938 21.6588C9.58039 21.5782 9.9226 21.4291 10.2275 21.2197C10.8033 20.8245 11.2367 20.2543 11.4633 19.5937C11.7439 18.8233 11.8763 18.0068 11.8535 17.1872" fill="white"/>
<path d="M22.7807 23.431L22.1953 23.9514C21.9957 24.131 21.7777 24.289 21.5449 24.4229C21.2663 24.5701 20.9717 24.6847 20.6669 24.7644C20.3358 24.838 19.9979 24.8761 19.6587 24.8782C19.2525 24.8859 18.8495 24.8039 18.4785 24.6381C18.1075 24.4722 17.7777 24.2267 17.5124 23.9188C16.9141 23.2443 16.5995 22.3646 16.6344 21.4636C16.6064 20.7859 16.7579 20.1128 17.0734 19.5123C17.3739 19.0035 17.8141 18.5916 18.3417 18.3253C18.9605 18.0021 19.6325 17.7928 20.3254 17.7075C21.1222 17.5774 21.9515 17.4961 22.797 17.431C22.8253 17.1868 22.7837 16.9396 22.6772 16.718C22.5708 16.4964 22.4037 16.3095 22.1953 16.179C21.632 15.9139 21.0123 15.7911 20.3905 15.8213C19.867 15.8359 19.35 15.9404 18.862 16.1303L17.6425 16.5693H17.3823V13.9351C17.8742 13.7935 18.3737 13.6795 18.8783 13.5937C19.5589 13.4636 20.2503 13.3982 20.9433 13.3985C22.2018 13.2864 23.4602 13.614 24.5043 14.3253C24.8953 14.6894 25.1982 15.1378 25.3898 15.6366C25.5814 16.1353 25.6567 16.6712 25.61 17.2034V24.6181H22.7319L22.7807 23.431ZM22.7807 21.805V19.5448C22.3905 19.5448 21.9677 19.5449 21.5124 19.7075C21.1583 19.7451 20.8093 19.8215 20.4717 19.9351C20.2055 20.0269 19.9731 20.1969 19.8051 20.4229C19.6385 20.6661 19.5584 20.9581 19.5775 21.2522C19.5584 21.4305 19.5584 21.6104 19.5775 21.7888C19.6136 21.9467 19.699 22.089 19.8213 22.1953C19.9401 22.3289 20.0913 22.4298 20.2604 22.488C20.5302 22.5236 20.8035 22.5236 21.0734 22.488C21.3782 22.4843 21.6783 22.412 21.9514 22.2766C22.2433 22.1418 22.5079 21.9544 22.7319 21.7238" fill="white"/>
<path d="M34.0815 24.4878C33.758 24.592 33.4262 24.6682 33.0896 24.7155C32.6692 24.7717 32.2455 24.7989 31.8213 24.7968C31.3672 24.8337 30.9102 24.7794 30.4773 24.6369C30.0445 24.4945 29.6446 24.2669 29.301 23.9675C28.674 23.1709 28.3771 22.1638 28.4718 21.1545V16.0488H27.301V13.6748H28.4718V10.5529H31.3986V13.6748H34.0815V16.0488H31.3986V19.9187C31.3986 20.309 31.3986 20.6342 31.3986 20.9268C31.393 21.1862 31.4315 21.4446 31.5124 21.6911C31.5847 21.91 31.7277 22.0988 31.9189 22.2277C32.1637 22.3741 32.4474 22.4422 32.7319 22.4228C32.9318 22.4156 33.1293 22.3772 33.3173 22.309C33.4931 22.2587 33.6623 22.1877 33.8214 22.0976H34.0653L34.0815 24.4878Z" fill="white"/>
<path d="M41.3007 23.4311L40.7317 23.9514C40.5237 24.1279 40.3006 24.2856 40.065 24.4229C39.7852 24.5675 39.4909 24.682 39.1869 24.7644C38.8559 24.838 38.5179 24.8761 38.1788 24.8782C37.7725 24.8859 37.3695 24.8039 36.9985 24.6381C36.6276 24.4723 36.2977 24.2267 36.0325 23.9189C35.4341 23.2443 35.1195 22.3647 35.1544 21.4636C35.1265 20.7859 35.2779 20.1128 35.5934 19.5124C35.894 19.0036 36.3341 18.5916 36.8617 18.3254C37.4806 18.0021 38.1525 17.7929 38.8455 17.7075C39.6422 17.5774 40.4715 17.4961 41.317 17.4311C41.3453 17.1869 41.3038 16.9397 41.1973 16.7181C41.0908 16.4965 40.9237 16.3096 40.7154 16.1791C40.1521 15.914 39.5323 15.7911 38.9105 15.8213C38.3869 15.8343 37.8696 15.9389 37.3821 16.1303L36.2113 16.6018H35.9512V13.9677C36.4431 13.8261 36.9425 13.7121 37.4471 13.6262C38.1277 13.4961 38.8192 13.4308 39.5122 13.4311C40.7706 13.319 42.029 13.6465 43.0731 14.3579C43.4642 14.722 43.767 15.1704 43.9586 15.6691C44.1502 16.1678 44.2255 16.7037 44.1788 17.236V24.6506H41.3007V23.4311ZM41.3007 21.8051V19.5449C40.9105 19.5449 40.4877 19.5449 40.0324 19.7075C39.6779 19.743 39.3288 19.8194 38.9918 19.9352C38.7255 20.0269 38.4932 20.1969 38.3251 20.4229C38.1586 20.6661 38.0784 20.9581 38.0975 21.2522C38.0784 21.4306 38.0784 21.6104 38.0975 21.7888C38.1336 21.9467 38.2191 22.0891 38.3414 22.1953C38.4602 22.329 38.6114 22.4298 38.7804 22.488C39.0504 22.522 39.3235 22.522 39.5934 22.488C39.8983 22.4843 40.1984 22.412 40.4715 22.2766C40.7634 22.1418 41.0279 21.9544 41.2519 21.7238" fill="white"/>
<path d="M59.2359 20.0487C59.2549 20.7153 59.1178 21.3771 58.8355 21.9813C58.5532 22.5855 58.1334 23.1153 57.6098 23.5283C56.3166 24.4729 54.7377 24.9437 53.1383 24.8617C52.1799 24.8735 51.2238 24.7642 50.2928 24.5364C49.5168 24.3399 48.7603 24.0733 48.0326 23.7397V20.2926H48.4066C49.0931 20.9046 49.8869 21.3843 50.7481 21.7072C51.5466 22.0192 52.3949 22.1844 53.2521 22.195H54.0651C54.3426 22.1607 54.6153 22.0952 54.8781 21.9999C55.1142 21.8843 55.3331 21.7365 55.5285 21.5608C55.7051 21.3406 55.7923 21.0619 55.7725 20.7803C55.7756 20.6246 55.7453 20.47 55.6836 20.3269C55.6219 20.1838 55.5302 20.0557 55.4148 19.9511C55.1047 19.6895 54.7369 19.5056 54.3416 19.4145L52.7156 19.0568C52.1629 18.9533 51.6192 18.8065 51.0896 18.6178C50.1441 18.3354 49.3092 17.7674 48.6993 16.9917C48.193 16.245 47.9367 15.3568 47.9676 14.4552C47.9624 13.8232 48.1071 13.199 48.3898 12.6337C48.6724 12.0684 49.0849 11.5782 49.5936 11.2031C50.8152 10.3056 52.3068 9.85242 53.8212 9.91857C54.6849 9.92116 55.5459 10.0138 56.3903 10.195C57.1368 10.3597 57.8663 10.5938 58.5692 10.8942V14.2275H58.2928C57.7135 13.7378 57.0604 13.3427 56.3578 13.0568C55.6095 12.7495 54.809 12.5894 54.0001 12.5852C53.7185 12.5697 53.4362 12.5697 53.1546 12.5852C52.8801 12.6342 52.6126 12.7161 52.3578 12.8292C52.128 12.9304 51.9227 13.0801 51.7562 13.2682C51.6557 13.3836 51.5799 13.5184 51.5335 13.6643C51.487 13.8102 51.4709 13.964 51.4862 14.1163C51.5014 14.2686 51.5476 14.4162 51.622 14.5499C51.6964 14.6837 51.7974 14.8009 51.9188 14.8942C52.3761 15.1785 52.8841 15.3717 53.4147 15.4633L54.7969 15.7722C55.2521 15.8861 55.7237 16.0324 56.2278 16.2112C57.0995 16.4846 57.877 16.9973 58.4716 17.6909C58.9643 18.406 59.2098 19.2625 59.1709 20.1299" fill="#3F3D92"/>
<path d="M71.1061 19.1543C71.1882 20.6732 70.727 22.1718 69.8053 23.3819C69.3309 23.8702 68.7634 24.2583 68.1364 24.5234C67.5094 24.7884 66.8356 24.925 66.1549 24.925C65.4741 24.925 64.8003 24.7884 64.1733 24.5234C63.5463 24.2583 62.9788 23.8702 62.5045 23.3819C61.5827 22.1718 61.1216 20.6732 61.2037 19.1543C61.111 17.6214 61.5791 16.1072 62.5207 14.8941C62.9951 14.4059 63.5626 14.0177 64.1896 13.7527C64.8166 13.4876 65.4904 13.3511 66.1711 13.3511C66.8519 13.3511 67.5257 13.4876 68.1527 13.7527C68.7797 14.0177 69.3472 14.4059 69.8215 14.8941C70.7373 16.119 71.1921 17.6274 71.1061 19.1543ZM67.5451 21.7884C67.7403 21.4836 67.8832 21.1484 67.9679 20.7966C68.0641 20.2601 68.1076 19.7155 68.098 19.1706C68.1076 18.6249 68.0586 18.0797 67.9516 17.5445C67.8805 17.1758 67.7427 16.8232 67.5451 16.5039C67.3982 16.2626 67.1832 16.0703 66.9272 15.951C66.6823 15.8398 66.4157 15.7843 66.1467 15.7884C65.8963 15.778 65.6466 15.8225 65.4151 15.9185C65.1588 16.044 64.9401 16.2346 64.7809 16.4714C64.5755 16.7884 64.4321 17.1415 64.3582 17.512C64.2521 18.0473 64.203 18.5923 64.2118 19.138C64.2084 19.6558 64.2519 20.1728 64.3419 20.6827C64.4145 21.0561 64.5521 21.4138 64.7484 21.7396C64.9007 21.9662 65.1076 22.1507 65.35 22.2762C65.6042 22.3964 65.8818 22.4587 66.163 22.4587C66.4442 22.4587 66.7218 22.3964 66.976 22.2762C67.2314 22.1639 67.4468 21.9768 67.5939 21.7396" fill="#3F3D92"/>
<path d="M80.374 12.0489H80.1627L79.6586 11.8863C79.4403 11.8333 79.2166 11.806 78.992 11.805C78.7851 11.779 78.5751 11.7974 78.376 11.8591C78.1769 11.9208 77.9933 12.0243 77.8374 12.1628C77.598 12.5993 77.496 13.0981 77.5448 13.5937V13.6749H79.7724V16.0489H77.6423V24.5855H74.7318V16.0489H73.4797V13.6749H74.7318V13.3172C74.6475 12.2409 74.9598 11.171 75.6098 10.3091C75.9485 9.94954 76.3647 9.67193 76.8268 9.49725C77.2888 9.32257 77.7846 9.25542 78.2765 9.30095C78.7101 9.30095 79.1004 9.30095 79.4472 9.30095C79.7594 9.32616 80.0692 9.37508 80.374 9.44728V12.0489Z" fill="#3F3D92"/>
<path d="M88.5857 24.4878C88.2673 24.5903 87.941 24.6665 87.6101 24.7155C87.1842 24.7717 86.755 24.7988 86.3255 24.7968C85.8713 24.8337 85.4144 24.7794 84.9815 24.6369C84.5487 24.4945 84.1487 24.2669 83.8052 23.9675C83.1778 23.1717 82.8861 22.1623 82.9922 21.1545V16.0488H81.8052V13.6748H82.9922V10.5529H85.9353V13.6748H88.6182V16.0488H85.9353V19.9187C85.9353 20.309 85.9353 20.6342 85.9353 20.9268C85.9377 21.1856 85.976 21.4428 86.0491 21.6911C86.1214 21.91 86.2644 22.0988 86.4556 22.2277C86.7004 22.3741 86.9841 22.4422 87.2686 22.4228C87.4685 22.4156 87.666 22.3772 87.854 22.309C88.0298 22.2587 88.199 22.1877 88.358 22.0976H88.602L88.5857 24.4878Z" fill="#3F3D92"/>
<path d="M95.5608 4.21144V1.30086H96.8453C97.0493 1.28609 97.2542 1.3138 97.4469 1.38219C97.5827 1.4362 97.697 1.5333 97.7721 1.65858C97.851 1.79117 97.8905 1.94347 97.886 2.09764C97.8885 2.28942 97.8189 2.47517 97.6909 2.61798C97.5172 2.76979 97.3019 2.86604 97.073 2.89437C97.1587 2.92573 97.2365 2.97571 97.3006 3.04071C97.4252 3.15025 97.5346 3.27605 97.6258 3.41471L98.1299 4.21144H97.6421L97.3169 3.56105C97.2327 3.42028 97.1404 3.28455 97.0404 3.15454C96.9929 3.07405 96.9258 3.00693 96.8453 2.95943L96.6665 2.8781H96.0161V4.17894L95.5608 4.21144ZM95.951 2.58543H96.7803C96.9151 2.60546 97.052 2.60546 97.1868 2.58543C97.2785 2.54935 97.3577 2.48719 97.4144 2.40659C97.4635 2.32831 97.4914 2.23869 97.4957 2.14642C97.4989 2.08212 97.4874 2.01793 97.4621 1.95875C97.4367 1.89957 97.3982 1.84699 97.3494 1.80497C97.2086 1.70237 97.0347 1.65596 96.8616 1.67486H95.951V2.58543Z" fill="white"/>
<path d="M96.7156 5.28478C96.2339 5.28477 95.763 5.14214 95.3622 4.87485C94.9615 4.60756 94.6489 4.2276 94.4638 3.78287C94.2787 3.33814 94.2295 2.84856 94.3223 2.37588C94.4151 1.90321 94.6458 1.46859 94.9853 1.12685C95.3247 0.785104 95.7578 0.551547 96.2298 0.455609C96.7019 0.35967 97.1918 0.405639 97.6377 0.587752C98.0837 0.769865 98.4657 1.07996 98.7356 1.47892C99.0056 1.87787 99.1514 2.34779 99.1546 2.82948C99.1546 3.47785 98.8982 4.09991 98.4412 4.5599C97.9843 5.01989 97.3639 5.28049 96.7156 5.28478ZM96.7156 0.74818C96.2993 0.744966 95.8916 0.865698 95.5441 1.09494C95.1967 1.32418 94.9254 1.65159 94.7646 2.03553C94.6038 2.41946 94.5609 2.84252 94.6413 3.25092C94.7217 3.65932 94.9219 4.03458 95.2162 4.32891C95.5105 4.62323 95.8857 4.82332 96.2941 4.90373C96.7025 4.98415 97.1256 4.94124 97.5095 4.78047C97.8935 4.6197 98.2209 4.34833 98.4502 4.00091C98.6794 3.65348 98.8001 3.2457 98.7969 2.82948C98.7926 2.2788 98.572 1.7519 98.1825 1.3625C97.7931 0.9731 97.2663 0.752433 96.7156 0.74818Z" fill="white"/>
<path d="M96.1134 9.17065L105.04 25.3658L102.91 33.9186L94.6987 18.0975L96.1134 9.17065Z" fill="white"/>
<path d="M105.723 25.7723L122.959 16.9918L119.593 25.7723L103.447 33.9186L105.723 25.7723Z" fill="white"/>
<path d="M114.065 0.00012207L96.8457 8.91071L105.512 25.0733L123.041 16.3416L114.065 0.00012207ZM112.911 3.25215L113.431 4.26028L110.992 5.52857L111.577 6.65052L113.886 5.46356L114.407 6.45541L112.098 7.65864L112.764 8.94321L115.35 7.60986L115.87 8.61799L111.951 10.6343L109.041 5.18712L112.911 3.25215ZM100.553 9.64238L102.179 8.7806L104.521 10.0977C105.209 10.5005 105.871 10.9458 106.504 11.431C106.021 10.7299 105.586 9.99647 105.203 9.23588L104.374 7.60986L105.675 6.94319L108.504 12.3741L107.025 13.1384L104.586 11.74C103.869 11.3264 103.174 10.876 102.504 10.3904C102.927 11.0896 103.334 11.8538 103.805 12.7319L104.651 14.3579L103.35 15.0245L100.553 9.64238ZM110.781 20.3578L109.691 19.6586L108.634 18.9757C108.66 19.3818 108.66 19.7892 108.634 20.1953V21.4473L107.008 22.2928L107.399 18.6017L104.244 16.8131L105.87 15.9839L106.943 16.6831C107.269 16.8882 107.584 17.1107 107.886 17.3497C107.886 16.927 107.886 16.618 107.886 16.2278V14.9432L109.512 14.1139L109.122 17.6749L112.374 19.496L110.781 20.3578ZM114.455 12.8619L112.829 13.74L112.277 12.6993L117.155 10.2115L117.691 11.2359L115.984 12.1302L118.26 16.5367L116.846 17.2684L114.455 12.8619Z" fill="black"/>
<path d="M114.065 0.00012207L96.8457 8.91071L105.512 25.0733L123.041 16.3416L114.065 0.00012207ZM112.911 3.25215L113.431 4.26028L110.992 5.52857L111.577 6.65052L113.886 5.46356L114.407 6.45541L112.098 7.65864L112.764 8.94321L115.35 7.60986L115.87 8.61799L111.951 10.6343L109.041 5.18712L112.911 3.25215ZM100.553 9.64238L102.179 8.7806L104.521 10.0977C105.209 10.5005 105.871 10.9458 106.504 11.431C106.021 10.7299 105.586 9.99647 105.203 9.23588L104.374 7.60986L105.675 6.94319L108.504 12.3741L107.025 13.1384L104.586 11.74C103.869 11.3264 103.174 10.876 102.504 10.3904C102.927 11.0896 103.334 11.8538 103.805 12.7319L104.651 14.3579L103.35 15.0245L100.553 9.64238ZM110.781 20.3578L109.691 19.6586L108.634 18.9757C108.66 19.3818 108.66 19.7892 108.634 20.1953V21.4473L107.008 22.2928L107.399 18.6017L104.244 16.8131L105.87 15.9839L106.943 16.6831C107.269 16.8882 107.584 17.1107 107.886 17.3497C107.886 16.927 107.886 16.618 107.886 16.2278V14.9432L109.512 14.1139L109.122 17.6749L112.374 19.496L110.781 20.3578ZM114.455 12.8619L112.829 13.74L112.277 12.6993L117.155 10.2115L117.691 11.2359L115.984 12.1302L118.26 16.5367L116.846 17.2684L114.455 12.8619Z" fill="white"/>
</g>
<defs>
<clipPath id="clip0_24_339">
<rect width="123.041" height="40" fill="white"/>
</clipPath>
</defs>
</svg>
